<mxfile host="app.diagrams.net" modified="2021-03-29T16:43:58.830Z" agent="5.0 (Windows NT 10.0; WOW64) AppleWebKit/537.36 (KHTML, like Gecko) Chrome/78.0.3904.108 Safari/537.36" etag="6erk62psSoFR0kfj9jcS" version="14.5.1" type="github">
  <diagram id="xmAJP2pUgGvxcJrkUorw" name="Page-1">
    <mxGraphModel dx="1422" dy="761" grid="0" gridSize="10" guides="1" tooltips="1" connect="1" arrows="1" fold="1" page="1" pageScale="1" pageWidth="3300" pageHeight="4681" background="none" math="0" shadow="1">
      <root>
        <mxCell id="0" />
        <mxCell id="1" parent="0" />
        <mxCell id="ponPuzFJM-LyV5LZRUgX-1" value="物料管理系统" style="rounded=0;whiteSpace=wrap;html=1;fontSize=19;fontStyle=1;spacing=2;strokeWidth=3;fillColor=#f9f7ed;strokeColor=#36393d;" vertex="1" parent="1">
          <mxGeometry x="650" y="250" width="120" height="60" as="geometry" />
        </mxCell>
        <mxCell id="ponPuzFJM-LyV5LZRUgX-2" value="前台" style="rounded=0;whiteSpace=wrap;html=1;fontSize=19;fontStyle=1;spacing=2;strokeWidth=3;fillColor=#f9f7ed;strokeColor=#36393d;" vertex="1" parent="1">
          <mxGeometry x="310" y="370" width="120" height="60" as="geometry" />
        </mxCell>
        <mxCell id="ponPuzFJM-LyV5LZRUgX-3" value="后台" style="rounded=0;whiteSpace=wrap;html=1;fontSize=19;fontStyle=1;spacing=2;strokeWidth=3;fillColor=#f9f7ed;strokeColor=#36393d;" vertex="1" parent="1">
          <mxGeometry x="1030" y="370" width="120" height="60" as="geometry" />
        </mxCell>
        <mxCell id="ponPuzFJM-LyV5LZRUgX-4" value="员工" style="rounded=0;whiteSpace=wrap;html=1;fontSize=19;fontStyle=1;spacing=2;strokeWidth=3;fillColor=#f9f7ed;strokeColor=#36393d;" vertex="1" parent="1">
          <mxGeometry x="40" y="480" width="120" height="60" as="geometry" />
        </mxCell>
        <mxCell id="ponPuzFJM-LyV5LZRUgX-5" value="主任" style="rounded=0;whiteSpace=wrap;html=1;fontSize=19;fontStyle=1;spacing=2;strokeWidth=3;fillColor=#f9f7ed;strokeColor=#36393d;" vertex="1" parent="1">
          <mxGeometry x="220" y="480" width="120" height="60" as="geometry" />
        </mxCell>
        <mxCell id="ponPuzFJM-LyV5LZRUgX-6" value="系统管理员" style="rounded=0;whiteSpace=wrap;html=1;fontSize=19;fontStyle=1;spacing=2;strokeWidth=3;fillColor=#f9f7ed;strokeColor=#36393d;" vertex="1" parent="1">
          <mxGeometry x="580" y="480" width="120" height="60" as="geometry" />
        </mxCell>
        <mxCell id="ponPuzFJM-LyV5LZRUgX-7" value="仓库管理员" style="rounded=0;whiteSpace=wrap;html=1;fontSize=19;fontStyle=1;spacing=2;strokeWidth=3;fillColor=#f9f7ed;strokeColor=#36393d;" vertex="1" parent="1">
          <mxGeometry x="400" y="480" width="120" height="60" as="geometry" />
        </mxCell>
        <mxCell id="ponPuzFJM-LyV5LZRUgX-9" value="添加用户" style="rounded=0;whiteSpace=wrap;html=1;fontSize=19;fontStyle=1;spacing=2;strokeWidth=3;fillColor=#f9f7ed;strokeColor=#36393d;" vertex="1" parent="1">
          <mxGeometry x="1200" y="580" width="120" height="60" as="geometry" />
        </mxCell>
        <mxCell id="ponPuzFJM-LyV5LZRUgX-10" value="删除用户" style="rounded=0;whiteSpace=wrap;html=1;fontSize=19;fontStyle=1;spacing=2;strokeWidth=3;fillColor=#f9f7ed;strokeColor=#36393d;" vertex="1" parent="1">
          <mxGeometry x="1200" y="660" width="120" height="60" as="geometry" />
        </mxCell>
        <mxCell id="ponPuzFJM-LyV5LZRUgX-11" value="密码修改" style="rounded=0;whiteSpace=wrap;html=1;fontSize=19;fontStyle=1;spacing=2;strokeWidth=3;fillColor=#f9f7ed;strokeColor=#36393d;" vertex="1" parent="1">
          <mxGeometry x="400" y="580" width="120" height="60" as="geometry" />
        </mxCell>
        <mxCell id="ponPuzFJM-LyV5LZRUgX-12" value="密码修改" style="rounded=0;whiteSpace=wrap;html=1;fontSize=19;fontStyle=1;spacing=2;strokeWidth=3;fillColor=#f9f7ed;strokeColor=#36393d;" vertex="1" parent="1">
          <mxGeometry x="220" y="580" width="120" height="60" as="geometry" />
        </mxCell>
        <mxCell id="ponPuzFJM-LyV5LZRUgX-13" value="密码修改" style="rounded=0;whiteSpace=wrap;html=1;fontSize=19;fontStyle=1;spacing=2;strokeWidth=3;fillColor=#f9f7ed;strokeColor=#36393d;" vertex="1" parent="1">
          <mxGeometry x="40" y="580" width="120" height="60" as="geometry" />
        </mxCell>
        <mxCell id="ponPuzFJM-LyV5LZRUgX-14" value="仓库管理员" style="rounded=0;whiteSpace=wrap;html=1;fontSize=19;fontStyle=1;spacing=2;strokeWidth=3;fillColor=#f9f7ed;strokeColor=#36393d;" vertex="1" parent="1">
          <mxGeometry x="1030" y="480" width="120" height="60" as="geometry" />
        </mxCell>
        <mxCell id="ponPuzFJM-LyV5LZRUgX-15" value="密码修改" style="rounded=0;whiteSpace=wrap;html=1;fontSize=19;fontStyle=1;spacing=2;strokeWidth=3;fillColor=#f9f7ed;strokeColor=#36393d;" vertex="1" parent="1">
          <mxGeometry x="580" y="580" width="120" height="60" as="geometry" />
        </mxCell>
        <mxCell id="ponPuzFJM-LyV5LZRUgX-16" value="系统管理员" style="rounded=0;whiteSpace=wrap;html=1;fontSize=19;fontStyle=1;spacing=2;strokeWidth=3;fillColor=#f9f7ed;strokeColor=#36393d;" vertex="1" parent="1">
          <mxGeometry x="1200" y="480" width="120" height="60" as="geometry" />
        </mxCell>
        <mxCell id="ponPuzFJM-LyV5LZRUgX-17" value="物料申请" style="rounded=0;whiteSpace=wrap;html=1;fontSize=19;fontStyle=1;spacing=2;strokeWidth=3;fillColor=#f9f7ed;strokeColor=#36393d;" vertex="1" parent="1">
          <mxGeometry x="40" y="660" width="120" height="60" as="geometry" />
        </mxCell>
        <mxCell id="ponPuzFJM-LyV5LZRUgX-18" value="物料申请" style="rounded=0;whiteSpace=wrap;html=1;fontSize=19;fontStyle=1;spacing=2;strokeWidth=3;fillColor=#f9f7ed;strokeColor=#36393d;" vertex="1" parent="1">
          <mxGeometry x="220" y="660" width="120" height="60" as="geometry" />
        </mxCell>
        <mxCell id="ponPuzFJM-LyV5LZRUgX-19" value="物料申请" style="rounded=0;whiteSpace=wrap;html=1;fontSize=19;fontStyle=1;spacing=2;strokeWidth=3;fillColor=#f9f7ed;strokeColor=#36393d;" vertex="1" parent="1">
          <mxGeometry x="400" y="660" width="120" height="60" as="geometry" />
        </mxCell>
        <mxCell id="ponPuzFJM-LyV5LZRUgX-20" value="物料申请" style="rounded=0;whiteSpace=wrap;html=1;fontSize=19;fontStyle=1;spacing=2;strokeWidth=3;fillColor=#f9f7ed;strokeColor=#36393d;" vertex="1" parent="1">
          <mxGeometry x="580" y="660" width="120" height="60" as="geometry" />
        </mxCell>
        <mxCell id="ponPuzFJM-LyV5LZRUgX-21" value="添加商品" style="rounded=0;whiteSpace=wrap;html=1;fontSize=19;fontStyle=1;spacing=2;strokeWidth=3;fillColor=#f9f7ed;strokeColor=#36393d;" vertex="1" parent="1">
          <mxGeometry x="1030" y="580" width="120" height="60" as="geometry" />
        </mxCell>
        <mxCell id="ponPuzFJM-LyV5LZRUgX-22" value="入库登记" style="rounded=0;whiteSpace=wrap;html=1;fontSize=19;fontStyle=1;spacing=2;strokeWidth=3;fillColor=#f9f7ed;strokeColor=#36393d;" vertex="1" parent="1">
          <mxGeometry x="1030" y="660" width="120" height="60" as="geometry" />
        </mxCell>
        <mxCell id="ponPuzFJM-LyV5LZRUgX-23" value="出库登记" style="rounded=0;whiteSpace=wrap;html=1;fontSize=19;fontStyle=1;spacing=2;strokeWidth=3;fillColor=#f9f7ed;strokeColor=#36393d;" vertex="1" parent="1">
          <mxGeometry x="1030" y="740" width="120" height="60" as="geometry" />
        </mxCell>
        <mxCell id="ponPuzFJM-LyV5LZRUgX-24" value="查询库存记录" style="rounded=0;whiteSpace=wrap;html=1;fontSize=19;fontStyle=1;spacing=2;strokeWidth=3;fillColor=#f9f7ed;strokeColor=#36393d;" vertex="1" parent="1">
          <mxGeometry x="1030" y="820" width="120" height="60" as="geometry" />
        </mxCell>
        <mxCell id="ponPuzFJM-LyV5LZRUgX-25" value="物料审批" style="rounded=0;whiteSpace=wrap;html=1;fontSize=19;fontStyle=1;spacing=2;strokeWidth=3;fillColor=#f9f7ed;strokeColor=#36393d;" vertex="1" parent="1">
          <mxGeometry x="220" y="740" width="120" height="60" as="geometry" />
        </mxCell>
        <mxCell id="ponPuzFJM-LyV5LZRUgX-26" value="主任" style="rounded=0;whiteSpace=wrap;html=1;fontSize=19;fontStyle=1;spacing=2;strokeWidth=3;fillColor=#f9f7ed;strokeColor=#36393d;" vertex="1" parent="1">
          <mxGeometry x="860" y="480" width="120" height="60" as="geometry" />
        </mxCell>
        <mxCell id="ponPuzFJM-LyV5LZRUgX-27" value="查询物料出入记录" style="rounded=0;whiteSpace=wrap;html=1;fontSize=19;fontStyle=1;spacing=2;strokeWidth=3;fillColor=#f9f7ed;strokeColor=#36393d;" vertex="1" parent="1">
          <mxGeometry x="840" y="580" width="160" height="60" as="geometry" />
        </mxCell>
        <mxCell id="ponPuzFJM-LyV5LZRUgX-29" value="" style="endArrow=none;html=1;fontSize=19;spacing=2;strokeWidth=3;fillColor=#f9f7ed;strokeColor=#36393d;" edge="1" parent="1">
          <mxGeometry width="50" height="50" relative="1" as="geometry">
            <mxPoint x="370" y="340" as="sourcePoint" />
            <mxPoint x="1090" y="340" as="targetPoint" />
          </mxGeometry>
        </mxCell>
        <mxCell id="ponPuzFJM-LyV5LZRUgX-30" value="" style="endArrow=none;html=1;fontSize=19;entryX=0.5;entryY=1;entryDx=0;entryDy=0;spacing=2;strokeWidth=3;fillColor=#f9f7ed;strokeColor=#36393d;" edge="1" parent="1" target="ponPuzFJM-LyV5LZRUgX-1">
          <mxGeometry width="50" height="50" relative="1" as="geometry">
            <mxPoint x="710" y="340" as="sourcePoint" />
            <mxPoint x="690" y="580" as="targetPoint" />
          </mxGeometry>
        </mxCell>
        <mxCell id="ponPuzFJM-LyV5LZRUgX-31" value="" style="endArrow=none;html=1;fontSize=19;exitX=0.5;exitY=0;exitDx=0;exitDy=0;spacing=2;strokeWidth=3;fillColor=#f9f7ed;strokeColor=#36393d;" edge="1" parent="1" source="ponPuzFJM-LyV5LZRUgX-2">
          <mxGeometry width="50" height="50" relative="1" as="geometry">
            <mxPoint x="500" y="430" as="sourcePoint" />
            <mxPoint x="370" y="340" as="targetPoint" />
          </mxGeometry>
        </mxCell>
        <mxCell id="ponPuzFJM-LyV5LZRUgX-32" value="" style="endArrow=none;html=1;fontSize=19;exitX=0.5;exitY=0;exitDx=0;exitDy=0;spacing=2;strokeWidth=3;fillColor=#f9f7ed;strokeColor=#36393d;" edge="1" parent="1" source="ponPuzFJM-LyV5LZRUgX-3">
          <mxGeometry width="50" height="50" relative="1" as="geometry">
            <mxPoint x="380" y="380" as="sourcePoint" />
            <mxPoint x="1090" y="340" as="targetPoint" />
          </mxGeometry>
        </mxCell>
        <mxCell id="ponPuzFJM-LyV5LZRUgX-33" value="" style="endArrow=none;html=1;fontSize=19;spacing=2;strokeWidth=3;fillColor=#f9f7ed;strokeColor=#36393d;" edge="1" parent="1">
          <mxGeometry width="50" height="50" relative="1" as="geometry">
            <mxPoint x="100" y="450" as="sourcePoint" />
            <mxPoint x="640" y="450" as="targetPoint" />
          </mxGeometry>
        </mxCell>
        <mxCell id="ponPuzFJM-LyV5LZRUgX-34" value="" style="endArrow=none;html=1;fontSize=19;spacing=2;strokeWidth=3;fillColor=#f9f7ed;strokeColor=#36393d;" edge="1" parent="1">
          <mxGeometry width="50" height="50" relative="1" as="geometry">
            <mxPoint x="640" y="480" as="sourcePoint" />
            <mxPoint x="640" y="450" as="targetPoint" />
          </mxGeometry>
        </mxCell>
        <mxCell id="ponPuzFJM-LyV5LZRUgX-35" value="" style="endArrow=none;html=1;fontSize=19;entryX=0.5;entryY=0;entryDx=0;entryDy=0;spacing=2;strokeWidth=3;fillColor=#f9f7ed;strokeColor=#36393d;" edge="1" parent="1" target="ponPuzFJM-LyV5LZRUgX-4">
          <mxGeometry width="50" height="50" relative="1" as="geometry">
            <mxPoint x="100" y="450" as="sourcePoint" />
            <mxPoint x="230" y="530" as="targetPoint" />
          </mxGeometry>
        </mxCell>
        <mxCell id="ponPuzFJM-LyV5LZRUgX-36" value="" style="endArrow=none;html=1;fontSize=19;entryX=0.5;entryY=1;entryDx=0;entryDy=0;spacing=2;strokeWidth=3;fillColor=#f9f7ed;strokeColor=#36393d;" edge="1" parent="1" target="ponPuzFJM-LyV5LZRUgX-2">
          <mxGeometry width="50" height="50" relative="1" as="geometry">
            <mxPoint x="370" y="450" as="sourcePoint" />
            <mxPoint x="690" y="580" as="targetPoint" />
          </mxGeometry>
        </mxCell>
        <mxCell id="ponPuzFJM-LyV5LZRUgX-37" value="" style="endArrow=none;html=1;fontSize=19;entryX=0.5;entryY=1;entryDx=0;entryDy=0;exitX=0.5;exitY=0;exitDx=0;exitDy=0;spacing=2;strokeWidth=3;fillColor=#f9f7ed;strokeColor=#36393d;" edge="1" parent="1" source="ponPuzFJM-LyV5LZRUgX-13" target="ponPuzFJM-LyV5LZRUgX-4">
          <mxGeometry width="50" height="50" relative="1" as="geometry">
            <mxPoint x="180" y="600" as="sourcePoint" />
            <mxPoint x="230" y="550" as="targetPoint" />
          </mxGeometry>
        </mxCell>
        <mxCell id="ponPuzFJM-LyV5LZRUgX-38" value="" style="endArrow=none;html=1;fontSize=19;entryX=0.5;entryY=1;entryDx=0;entryDy=0;spacing=2;strokeWidth=3;fillColor=#f9f7ed;strokeColor=#36393d;" edge="1" parent="1" source="ponPuzFJM-LyV5LZRUgX-12" target="ponPuzFJM-LyV5LZRUgX-5">
          <mxGeometry width="50" height="50" relative="1" as="geometry">
            <mxPoint x="110" y="590" as="sourcePoint" />
            <mxPoint x="110" y="550" as="targetPoint" />
          </mxGeometry>
        </mxCell>
        <mxCell id="ponPuzFJM-LyV5LZRUgX-39" value="" style="endArrow=none;html=1;fontSize=19;entryX=0.5;entryY=1;entryDx=0;entryDy=0;exitX=0.5;exitY=0;exitDx=0;exitDy=0;spacing=2;strokeWidth=3;fillColor=#f9f7ed;strokeColor=#36393d;" edge="1" parent="1" source="ponPuzFJM-LyV5LZRUgX-11" target="ponPuzFJM-LyV5LZRUgX-7">
          <mxGeometry width="50" height="50" relative="1" as="geometry">
            <mxPoint x="120" y="600" as="sourcePoint" />
            <mxPoint x="120" y="560" as="targetPoint" />
          </mxGeometry>
        </mxCell>
        <mxCell id="ponPuzFJM-LyV5LZRUgX-40" value="" style="endArrow=none;html=1;fontSize=19;entryX=0.5;entryY=1;entryDx=0;entryDy=0;spacing=2;strokeWidth=3;fillColor=#f9f7ed;strokeColor=#36393d;" edge="1" parent="1" source="ponPuzFJM-LyV5LZRUgX-15" target="ponPuzFJM-LyV5LZRUgX-6">
          <mxGeometry width="50" height="50" relative="1" as="geometry">
            <mxPoint x="130" y="610" as="sourcePoint" />
            <mxPoint x="130" y="570" as="targetPoint" />
          </mxGeometry>
        </mxCell>
        <mxCell id="ponPuzFJM-LyV5LZRUgX-41" value="" style="endArrow=none;html=1;fontSize=19;entryX=0.5;entryY=1;entryDx=0;entryDy=0;exitX=0.5;exitY=0;exitDx=0;exitDy=0;spacing=2;strokeWidth=3;fillColor=#f9f7ed;strokeColor=#36393d;" edge="1" parent="1" source="ponPuzFJM-LyV5LZRUgX-17" target="ponPuzFJM-LyV5LZRUgX-13">
          <mxGeometry width="50" height="50" relative="1" as="geometry">
            <mxPoint x="60" y="820" as="sourcePoint" />
            <mxPoint x="110" y="770" as="targetPoint" />
          </mxGeometry>
        </mxCell>
        <mxCell id="ponPuzFJM-LyV5LZRUgX-42" value="" style="endArrow=none;html=1;fontSize=19;entryX=0.5;entryY=1;entryDx=0;entryDy=0;exitX=0.5;exitY=0;exitDx=0;exitDy=0;spacing=2;strokeWidth=3;fillColor=#f9f7ed;strokeColor=#36393d;" edge="1" parent="1" source="ponPuzFJM-LyV5LZRUgX-18" target="ponPuzFJM-LyV5LZRUgX-12">
          <mxGeometry width="50" height="50" relative="1" as="geometry">
            <mxPoint x="110" y="670" as="sourcePoint" />
            <mxPoint x="110" y="650" as="targetPoint" />
          </mxGeometry>
        </mxCell>
        <mxCell id="ponPuzFJM-LyV5LZRUgX-43" value="" style="endArrow=none;html=1;fontSize=19;entryX=0.5;entryY=1;entryDx=0;entryDy=0;exitX=0.5;exitY=0;exitDx=0;exitDy=0;spacing=2;strokeWidth=3;fillColor=#f9f7ed;strokeColor=#36393d;" edge="1" parent="1" source="ponPuzFJM-LyV5LZRUgX-19" target="ponPuzFJM-LyV5LZRUgX-11">
          <mxGeometry width="50" height="50" relative="1" as="geometry">
            <mxPoint x="290" y="670" as="sourcePoint" />
            <mxPoint x="290" y="650" as="targetPoint" />
          </mxGeometry>
        </mxCell>
        <mxCell id="ponPuzFJM-LyV5LZRUgX-44" value="" style="endArrow=none;html=1;fontSize=19;entryX=0.5;entryY=1;entryDx=0;entryDy=0;exitX=0.5;exitY=0;exitDx=0;exitDy=0;spacing=2;strokeWidth=3;fillColor=#f9f7ed;strokeColor=#36393d;" edge="1" parent="1" source="ponPuzFJM-LyV5LZRUgX-25" target="ponPuzFJM-LyV5LZRUgX-18">
          <mxGeometry width="50" height="50" relative="1" as="geometry">
            <mxPoint x="470" y="670" as="sourcePoint" />
            <mxPoint x="470" y="650" as="targetPoint" />
          </mxGeometry>
        </mxCell>
        <mxCell id="ponPuzFJM-LyV5LZRUgX-45" value="" style="endArrow=none;html=1;fontSize=19;entryX=0.5;entryY=1;entryDx=0;entryDy=0;exitX=0.5;exitY=0;exitDx=0;exitDy=0;spacing=2;strokeWidth=3;fillColor=#f9f7ed;strokeColor=#36393d;" edge="1" parent="1" source="ponPuzFJM-LyV5LZRUgX-20" target="ponPuzFJM-LyV5LZRUgX-15">
          <mxGeometry width="50" height="50" relative="1" as="geometry">
            <mxPoint x="290" y="750" as="sourcePoint" />
            <mxPoint x="290" y="730" as="targetPoint" />
          </mxGeometry>
        </mxCell>
        <mxCell id="ponPuzFJM-LyV5LZRUgX-46" value="" style="endArrow=none;html=1;fontSize=19;entryX=0.5;entryY=1;entryDx=0;entryDy=0;exitX=0.5;exitY=0;exitDx=0;exitDy=0;spacing=2;strokeWidth=3;fillColor=#f9f7ed;strokeColor=#36393d;" edge="1" parent="1" source="ponPuzFJM-LyV5LZRUgX-27" target="ponPuzFJM-LyV5LZRUgX-26">
          <mxGeometry width="50" height="50" relative="1" as="geometry">
            <mxPoint x="290" y="590" as="sourcePoint" />
            <mxPoint x="290" y="550" as="targetPoint" />
          </mxGeometry>
        </mxCell>
        <mxCell id="ponPuzFJM-LyV5LZRUgX-47" value="" style="endArrow=none;html=1;fontSize=19;entryX=0.5;entryY=1;entryDx=0;entryDy=0;exitX=0.5;exitY=0;exitDx=0;exitDy=0;spacing=2;strokeWidth=3;fillColor=#f9f7ed;strokeColor=#36393d;" edge="1" parent="1" source="ponPuzFJM-LyV5LZRUgX-21" target="ponPuzFJM-LyV5LZRUgX-14">
          <mxGeometry width="50" height="50" relative="1" as="geometry">
            <mxPoint x="930" y="590" as="sourcePoint" />
            <mxPoint x="930" y="550" as="targetPoint" />
          </mxGeometry>
        </mxCell>
        <mxCell id="ponPuzFJM-LyV5LZRUgX-48" value="" style="endArrow=none;html=1;fontSize=19;entryX=0.5;entryY=1;entryDx=0;entryDy=0;exitX=0.5;exitY=0;exitDx=0;exitDy=0;spacing=2;strokeWidth=3;fillColor=#f9f7ed;strokeColor=#36393d;" edge="1" parent="1" source="ponPuzFJM-LyV5LZRUgX-9" target="ponPuzFJM-LyV5LZRUgX-16">
          <mxGeometry width="50" height="50" relative="1" as="geometry">
            <mxPoint x="940" y="600" as="sourcePoint" />
            <mxPoint x="940" y="560" as="targetPoint" />
          </mxGeometry>
        </mxCell>
        <mxCell id="ponPuzFJM-LyV5LZRUgX-49" value="" style="endArrow=none;html=1;fontSize=19;entryX=0.5;entryY=1;entryDx=0;entryDy=0;exitX=0.5;exitY=0;exitDx=0;exitDy=0;spacing=2;strokeWidth=3;fillColor=#f9f7ed;strokeColor=#36393d;" edge="1" parent="1" source="ponPuzFJM-LyV5LZRUgX-10" target="ponPuzFJM-LyV5LZRUgX-9">
          <mxGeometry width="50" height="50" relative="1" as="geometry">
            <mxPoint x="1270" y="590" as="sourcePoint" />
            <mxPoint x="1270" y="550" as="targetPoint" />
          </mxGeometry>
        </mxCell>
        <mxCell id="ponPuzFJM-LyV5LZRUgX-50" value="" style="endArrow=none;html=1;fontSize=19;entryX=0.5;entryY=1;entryDx=0;entryDy=0;spacing=2;strokeWidth=3;fillColor=#f9f7ed;strokeColor=#36393d;" edge="1" parent="1" source="ponPuzFJM-LyV5LZRUgX-22" target="ponPuzFJM-LyV5LZRUgX-21">
          <mxGeometry width="50" height="50" relative="1" as="geometry">
            <mxPoint x="1270" y="670" as="sourcePoint" />
            <mxPoint x="1270" y="650" as="targetPoint" />
          </mxGeometry>
        </mxCell>
        <mxCell id="ponPuzFJM-LyV5LZRUgX-51" value="" style="endArrow=none;html=1;fontSize=19;entryX=0.5;entryY=1;entryDx=0;entryDy=0;exitX=0.5;exitY=0;exitDx=0;exitDy=0;spacing=2;strokeWidth=3;fillColor=#f9f7ed;strokeColor=#36393d;" edge="1" parent="1" source="ponPuzFJM-LyV5LZRUgX-23" target="ponPuzFJM-LyV5LZRUgX-22">
          <mxGeometry width="50" height="50" relative="1" as="geometry">
            <mxPoint x="1100" y="670" as="sourcePoint" />
            <mxPoint x="1100" y="650" as="targetPoint" />
          </mxGeometry>
        </mxCell>
        <mxCell id="ponPuzFJM-LyV5LZRUgX-52" value="" style="endArrow=none;html=1;fontSize=19;entryX=0.5;entryY=1;entryDx=0;entryDy=0;exitX=0.5;exitY=0;exitDx=0;exitDy=0;spacing=2;strokeWidth=3;fillColor=#f9f7ed;strokeColor=#36393d;" edge="1" parent="1" source="ponPuzFJM-LyV5LZRUgX-24" target="ponPuzFJM-LyV5LZRUgX-23">
          <mxGeometry width="50" height="50" relative="1" as="geometry">
            <mxPoint x="1100" y="750" as="sourcePoint" />
            <mxPoint x="1100" y="730" as="targetPoint" />
          </mxGeometry>
        </mxCell>
        <mxCell id="ponPuzFJM-LyV5LZRUgX-53" value="" style="endArrow=none;html=1;fontSize=19;entryX=0.5;entryY=1;entryDx=0;entryDy=0;exitX=0.5;exitY=0;exitDx=0;exitDy=0;spacing=2;strokeWidth=3;fillColor=#f9f7ed;strokeColor=#36393d;" edge="1" parent="1" source="ponPuzFJM-LyV5LZRUgX-14" target="ponPuzFJM-LyV5LZRUgX-3">
          <mxGeometry width="50" height="50" relative="1" as="geometry">
            <mxPoint x="1100" y="590" as="sourcePoint" />
            <mxPoint x="1100" y="550" as="targetPoint" />
          </mxGeometry>
        </mxCell>
        <mxCell id="ponPuzFJM-LyV5LZRUgX-54" value="" style="endArrow=none;html=1;fontSize=19;spacing=2;strokeWidth=3;fillColor=#f9f7ed;strokeColor=#36393d;exitX=0.5;exitY=0;exitDx=0;exitDy=0;" edge="1" parent="1" source="ponPuzFJM-LyV5LZRUgX-5">
          <mxGeometry width="50" height="50" relative="1" as="geometry">
            <mxPoint x="110" y="460" as="sourcePoint" />
            <mxPoint x="280" y="454" as="targetPoint" />
          </mxGeometry>
        </mxCell>
        <mxCell id="ponPuzFJM-LyV5LZRUgX-55" value="" style="endArrow=none;html=1;fontSize=19;spacing=2;strokeWidth=3;fillColor=#f9f7ed;strokeColor=#36393d;exitX=0.5;exitY=0;exitDx=0;exitDy=0;" edge="1" parent="1" source="ponPuzFJM-LyV5LZRUgX-7">
          <mxGeometry width="50" height="50" relative="1" as="geometry">
            <mxPoint x="290" y="490" as="sourcePoint" />
            <mxPoint x="460" y="452" as="targetPoint" />
          </mxGeometry>
        </mxCell>
        <mxCell id="ponPuzFJM-LyV5LZRUgX-56" value="" style="endArrow=none;html=1;fontSize=19;spacing=2;strokeWidth=3;fillColor=#f9f7ed;strokeColor=#36393d;" edge="1" parent="1">
          <mxGeometry width="50" height="50" relative="1" as="geometry">
            <mxPoint x="922" y="460" as="sourcePoint" />
            <mxPoint x="1259" y="460" as="targetPoint" />
          </mxGeometry>
        </mxCell>
        <mxCell id="ponPuzFJM-LyV5LZRUgX-57" value="" style="endArrow=none;html=1;fontSize=19;spacing=2;strokeWidth=3;fillColor=#f9f7ed;strokeColor=#36393d;entryX=0.5;entryY=0;entryDx=0;entryDy=0;" edge="1" parent="1" target="ponPuzFJM-LyV5LZRUgX-26">
          <mxGeometry width="50" height="50" relative="1" as="geometry">
            <mxPoint x="920" y="458" as="sourcePoint" />
            <mxPoint x="290" y="464" as="targetPoint" />
          </mxGeometry>
        </mxCell>
        <mxCell id="ponPuzFJM-LyV5LZRUgX-58" value="" style="endArrow=none;html=1;fontSize=19;spacing=2;strokeWidth=3;fillColor=#f9f7ed;strokeColor=#36393d;entryX=0.5;entryY=0;entryDx=0;entryDy=0;" edge="1" parent="1" target="ponPuzFJM-LyV5LZRUgX-16">
          <mxGeometry width="50" height="50" relative="1" as="geometry">
            <mxPoint x="1260" y="458" as="sourcePoint" />
            <mxPoint x="930" y="490" as="targetPoint" />
          </mxGeometry>
        </mxCell>
      </root>
    </mxGraphModel>
  </diagram>
</mxfile>
